<svg xmlns="http://www.w3.org/2000/svg" width="1200" height="720" viewBox="0 0 1200 720">
<rect width="100%" height="100%" fill="white"/>
<text x="600.0" y="42" text-anchor="middle" font-family="Arial" font-size="30" font-weight="700">Release Burndown Chart</text>
<line x1="90" y1="80" x2="90" y2="610" stroke="#666" stroke-width="2"/>
<line x1="90" y1="610" x2="980" y2="610" stroke="#666" stroke-width="2"/>
<line x1="90" y1="610.00" x2="980" y2="610.00" stroke="#d0d0d0" stroke-width="1"/>
<text x="80" y="615.00" text-anchor="end" font-family="Arial" font-size="14">0</text>
<line x1="90" y1="504.00" x2="980" y2="504.00" stroke="#d0d0d0" stroke-width="1"/>
<text x="80" y="509.00" text-anchor="end" font-family="Arial" font-size="14">4</text>
<line x1="90" y1="398.00" x2="980" y2="398.00" stroke="#d0d0d0" stroke-width="1"/>
<text x="80" y="403.00" text-anchor="end" font-family="Arial" font-size="14">9</text>
<line x1="90" y1="292.00" x2="980" y2="292.00" stroke="#d0d0d0" stroke-width="1"/>
<text x="80" y="297.00" text-anchor="end" font-family="Arial" font-size="14">13</text>
<line x1="90" y1="186.00" x2="980" y2="186.00" stroke="#d0d0d0" stroke-width="1"/>
<text x="80" y="191.00" text-anchor="end" font-family="Arial" font-size="14">18</text>
<line x1="90" y1="80.00" x2="980" y2="80.00" stroke="#d0d0d0" stroke-width="1"/>
<text x="80" y="85.00" text-anchor="end" font-family="Arial" font-size="14">23</text>
<text x="90.00" y="640" text-anchor="middle" font-family="Arial" font-size="14">S0</text>
<text x="268.00" y="640" text-anchor="middle" font-family="Arial" font-size="14">S1</text>
<text x="446.00" y="640" text-anchor="middle" font-family="Arial" font-size="14">S2</text>
<text x="624.00" y="640" text-anchor="middle" font-family="Arial" font-size="14">S3</text>
<text x="802.00" y="640" text-anchor="middle" font-family="Arial" font-size="14">S4</text>
<text x="980.00" y="640" text-anchor="middle" font-family="Arial" font-size="14">S5</text>
<polyline fill="none" stroke="#E03131" stroke-width="4" points="90.00,149.13 268.00,241.30 446.00,333.48 624.00,425.65 802.00,517.83 980.00,610.00"/>
<polyline fill="none" stroke="#74B816" stroke-width="4" points="90.00,149.13 268.00,218.26 446.00,264.35 624.00,310.43 802.00,425.65 980.00,610.00"/>
<line x1="1030" y1="170" x2="1054" y2="170" stroke="#E03131" stroke-width="4"/>
<text x="1064" y="175" font-family="Arial" font-size="16">TODO</text>
<line x1="1030" y1="208" x2="1054" y2="208" stroke="#74B816" stroke-width="4"/>
<text x="1064" y="213" font-family="Arial" font-size="16">DONE</text>
<text x="535.0" y="705" text-anchor="middle" font-family="Arial" font-size="18">Sprints</text>
<text x="25" y="345.0" text-anchor="middle" font-family="Arial" font-size="18" transform="rotate(-90 25 345.0)">Story Points</text>
</svg>