<svg xmlns="http://www.w3.org/2000/svg" width="1200" height="720" viewBox="0 0 1200 720">
<rect width="100%" height="100%" fill="white"/>
<text x="600.0" y="42" text-anchor="middle" font-family="Arial" font-size="28">Project Burndown by Sprint</text>
<text x="28" y="340.0" text-anchor="middle" font-family="Arial" font-size="20" transform="rotate(-90 28 340.0)">Remaining items</text>
<line x1="110" y1="80" x2="110" y2="600" stroke="black" stroke-width="2"/>
<line x1="110" y1="600" x2="1160" y2="600" stroke="black" stroke-width="2"/>
<line x1="110" y1="600.0" x2="1160" y2="600.0" stroke="#cccccc" stroke-width="1"/>
<text x="98" y="606.0" text-anchor="end" font-family="Arial" font-size="16">0</text>
<line x1="110" y1="496.0" x2="1160" y2="496.0" stroke="#cccccc" stroke-width="1"/>
<text x="98" y="502.0" text-anchor="end" font-family="Arial" font-size="16">1</text>
<line x1="110" y1="392.0" x2="1160" y2="392.0" stroke="#cccccc" stroke-width="1"/>
<text x="98" y="398.0" text-anchor="end" font-family="Arial" font-size="16">2</text>
<line x1="110" y1="288.0" x2="1160" y2="288.0" stroke="#cccccc" stroke-width="1"/>
<text x="98" y="294.0" text-anchor="end" font-family="Arial" font-size="16">3</text>
<line x1="110" y1="184.0" x2="1160" y2="184.0" stroke="#cccccc" stroke-width="1"/>
<text x="98" y="190.0" text-anchor="end" font-family="Arial" font-size="16">5</text>
<line x1="110" y1="80.0" x2="1160" y2="80.0" stroke="#cccccc" stroke-width="1"/>
<text x="98" y="86.0" text-anchor="end" font-family="Arial" font-size="16">6</text>
<text x="110.0" y="646" text-anchor="middle" font-family="Arial" font-size="16" transform="rotate(20 110.0 646)">Sprint 0</text>
<text x="320.0" y="646" text-anchor="middle" font-family="Arial" font-size="16" transform="rotate(20 320.0 646)">Sprint 1</text>
<text x="530.0" y="646" text-anchor="middle" font-family="Arial" font-size="16" transform="rotate(20 530.0 646)">Sprint 2</text>
<text x="740.0" y="646" text-anchor="middle" font-family="Arial" font-size="16" transform="rotate(20 740.0 646)">Sprint 3</text>
<text x="950.0" y="646" text-anchor="middle" font-family="Arial" font-size="16" transform="rotate(20 950.0 646)">Sprint 4</text>
<text x="1160.0" y="646" text-anchor="middle" font-family="Arial" font-size="16" transform="rotate(20 1160.0 646)">Sprint 5</text>
<polyline fill="none" stroke="#F59E0B" stroke-width="4" points="110.0,521.2121212121212 320.0,284.8484848484849 530.0,127.27272727272731 740.0,521.2121212121212 950.0,521.2121212121212 1160.0,600.0"/>
<circle cx="110.0" cy="521.2121212121212" r="5" fill="#F59E0B" stroke="black" stroke-width="1"/>
<text x="110.0" y="511.21212121212125" text-anchor="middle" font-family="Arial" font-size="14">1</text>
<circle cx="320.0" cy="284.8484848484849" r="5" fill="#F59E0B" stroke="black" stroke-width="1"/>
<text x="320.0" y="274.8484848484849" text-anchor="middle" font-family="Arial" font-size="14">4</text>
<circle cx="530.0" cy="127.27272727272731" r="5" fill="#F59E0B" stroke="black" stroke-width="1"/>
<text x="530.0" y="117.27272727272731" text-anchor="middle" font-family="Arial" font-size="14">6</text>
<circle cx="740.0" cy="521.2121212121212" r="5" fill="#F59E0B" stroke="black" stroke-width="1"/>
<text x="740.0" y="511.21212121212125" text-anchor="middle" font-family="Arial" font-size="14">1</text>
<circle cx="950.0" cy="521.2121212121212" r="5" fill="#F59E0B" stroke="black" stroke-width="1"/>
<text x="950.0" y="511.21212121212125" text-anchor="middle" font-family="Arial" font-size="14">1</text>
<circle cx="1160.0" cy="600.0" r="5" fill="#F59E0B" stroke="black" stroke-width="1"/>
<text x="1160.0" y="590.0" text-anchor="middle" font-family="Arial" font-size="14">0</text>
<line x1="940" y1="64" x2="958" y2="64" stroke="#F59E0B" stroke-width="4"/>
<circle cx="949" cy="64" r="4" fill="#F59E0B" stroke="black" stroke-width="1"/>
<text x="968" y="70" font-family="Arial" font-size="16">Remaining</text>
</svg>